<?xml version="1.0" standalone="no"?>
<!DOCTYPE svg PUBLIC "-//W3C//DTD SVG 20010904//EN"
 "http://www.w3.org/TR/2001/REC-SVG-20010904/DTD/svg10.dtd">
<svg version="1.0" xmlns="http://www.w3.org/2000/svg"
 width="300.000000pt" height="300.000000pt" viewBox="0 0 300.000000 300.000000"
 preserveAspectRatio="xMidYMid meet">

<g transform="translate(0.000000,300.000000) scale(0.100000,-0.100000)"
fill="#000000" stroke="none">
<path d="M505 2618 c-3 -7 -1 -26 3 -43 l8 -30 152 -3 c147 -2 152 -2 152 18
0 20 4 20 695 20 688 0 695 0 695 -20 0 -19 7 -20 140 -20 128 0 140 2 140 18
0 10 5 23 11 29 7 7 9 19 6 27 -6 14 -107 16 -1002 16 -787 0 -997 -3 -1000
-12z"/>
<path d="M560 2503 c0 -10 3 -28 6 -40 6 -23 9 -23 150 -23 121 0 144 2 144
15 0 13 36 15 265 15 l265 0 0 -285 c0 -277 -1 -285 -20 -285 -18 0 -20 8 -22
143 -3 134 -4 142 -23 142 -19 0 -20 8 -25 115 l-5 115 -342 3 -343 2 0 -25
c0 -14 5 -25 10 -25 6 0 10 -7 10 -15 0 -13 23 -15 145 -15 122 0 145 2 145
15 0 13 25 15 165 15 l165 0 0 -235 0 -235 -25 0 -25 0 0 141 c0 131 -1 141
-20 146 -16 4 -20 15 -22 62 l-3 56 -242 3 -243 2 0 -25 c0 -14 5 -25 10 -25
6 0 10 -9 10 -20 0 -19 7 -20 140 -20 133 0 140 1 140 20 0 18 7 20 70 20 l70
0 0 -580 0 -580 395 0 395 0 0 288 c0 158 3 419 7 580 l6 292 74 0 c66 0 73
-2 73 -20 0 -19 7 -20 135 -20 118 0 135 2 135 16 0 9 7 22 17 29 10 7 14 19
10 29 -6 15 -31 16 -249 14 l-243 -3 -3 -62 c-3 -55 -6 -63 -22 -63 -19 0 -20
-8 -20 -140 l0 -140 -25 0 -25 0 0 235 0 235 170 0 c144 0 170 -2 170 -15 0
-13 22 -15 140 -15 98 0 140 3 140 11 0 7 7 17 17 24 10 7 14 19 10 29 -6 15
-38 16 -349 14 l-343 -3 -3 -117 c-2 -110 -4 -118 -22 -118 -19 0 -20 -7 -20
-140 l0 -140 -25 0 -25 0 0 285 0 285 265 0 c229 0 265 -2 265 -15 0 -13 22
-15 140 -15 113 0 140 3 140 14 0 7 9 16 21 19 13 4 20 12 17 24 -3 17 -26 18
-448 18 l-445 0 -3 -162 c-2 -155 -4 -163 -22 -163 -19 0 -20 -7 -20 -145 l0
-145 -25 0 -24 0 -3 148 c-3 139 -4 147 -23 147 -19 0 -20 8 -25 160 l-5 160
-437 3 c-413 2 -438 1 -438 -15z"/>
<path d="M1010 1921 l-25 -7 0 -469 0 -470 520 0 520 0 0 470 0 470 -42 3 -43
3 0 -155 c0 -149 1 -156 20 -156 20 0 20 -7 20 -295 l0 -295 -475 0 -475 0 0
289 c0 281 1 289 20 294 20 5 20 12 18 164 -3 170 -3 170 -58 154z"/>
<path d="M902 1826 l-22 -24 2 -464 3 -463 620 0 620 0 3 464 c2 451 2 465
-17 483 -11 10 -29 18 -41 18 -19 0 -20 -6 -20 -155 0 -131 2 -155 15 -155 13
0 15 -41 15 -305 l0 -305 -575 0 -575 0 0 299 c0 259 2 300 15 305 13 5 15 29
13 163 -3 172 -10 188 -56 139z"/>
<path d="M802 1722 l-22 -17 2 -465 3 -465 720 0 720 0 3 465 c2 428 1 466
-15 478 -9 6 -27 12 -40 12 l-23 0 0 -155 c0 -131 2 -155 15 -155 13 0 15 -40
15 -300 l0 -300 -675 0 -675 0 0 294 c0 254 2 295 15 300 13 5 15 29 13 163
-3 171 -8 183 -56 145z"/>
<path d="M702 1622 l-22 -17 2 -465 3 -465 820 0 820 0 3 465 c2 428 1 466
-15 478 -9 6 -27 12 -40 12 l-23 0 0 -155 c0 -131 2 -155 15 -155 13 0 15 -40
15 -300 l0 -300 -775 0 -775 0 0 294 c0 254 2 295 15 300 13 5 15 29 13 163
-3 171 -8 183 -56 145z"/>
<path d="M602 1526 l-22 -24 2 -464 3 -463 920 0 920 0 3 464 c2 451 2 465
-17 483 -11 10 -29 18 -41 18 -19 0 -20 -6 -20 -155 0 -131 2 -155 15 -155 13
0 15 -41 15 -305 l0 -305 -875 0 -875 0 0 299 c0 259 2 300 15 305 13 5 15 29
13 163 -3 172 -10 188 -56 139z"/>
</g>
</svg>
